<mxfile host="app.diagrams.net" modified="2023-05-21T21:50:08.933Z" agent="Mozilla/5.0 (X11; Linux x86_64) AppleWebKit/537.36 (KHTML, like Gecko) Chrome/111.0.0.0 Safari/537.36" etag="g3t3hOEGPNCVPwKxkqk-" version="21.3.2" type="device">
  <diagram id="Um7idM1XhnPcWQUyJz3g" name="Page-1">
    <mxGraphModel dx="2116" dy="670" grid="1" gridSize="10" guides="1" tooltips="1" connect="1" arrows="1" fold="1" page="1" pageScale="1" pageWidth="850" pageHeight="1100" math="0" shadow="0">
      <root>
        <mxCell id="0" />
        <mxCell id="1" parent="0" />
        <mxCell id="FzFozQ8pbkiuX8usW2jT-35" value="" style="rounded=1;whiteSpace=wrap;html=1;strokeColor=#0066CC;fontSize=18;arcSize=7;" parent="1" vertex="1">
          <mxGeometry x="-65" y="230" width="739" height="380" as="geometry" />
        </mxCell>
        <mxCell id="FzFozQ8pbkiuX8usW2jT-1" value="&lt;font style=&quot;font-size: 18px;&quot;&gt;AXI-S&lt;br&gt;(write)&lt;br&gt;&lt;/font&gt;" style="rounded=0;whiteSpace=wrap;html=1;strokeColor=#0066CC;" parent="1" vertex="1">
          <mxGeometry x="164" y="240" width="120" height="360" as="geometry" />
        </mxCell>
        <mxCell id="FzFozQ8pbkiuX8usW2jT-10" value="" style="endArrow=classic;html=1;rounded=0;strokeColor=#0066CC;" parent="1" edge="1">
          <mxGeometry relative="1" as="geometry">
            <mxPoint x="64" y="281" as="sourcePoint" />
            <mxPoint x="164" y="281" as="targetPoint" />
          </mxGeometry>
        </mxCell>
        <mxCell id="FzFozQ8pbkiuX8usW2jT-11" value="&amp;nbsp;AWLEN&amp;nbsp;" style="edgeLabel;resizable=0;html=1;align=center;verticalAlign=middle;strokeColor=#0066CC;" parent="FzFozQ8pbkiuX8usW2jT-10" connectable="0" vertex="1">
          <mxGeometry relative="1" as="geometry" />
        </mxCell>
        <mxCell id="FzFozQ8pbkiuX8usW2jT-18" value="" style="endArrow=classic;html=1;rounded=0;strokeColor=#0066CC;" parent="1" edge="1">
          <mxGeometry relative="1" as="geometry">
            <mxPoint x="64" y="269" as="sourcePoint" />
            <mxPoint x="164" y="269" as="targetPoint" />
          </mxGeometry>
        </mxCell>
        <mxCell id="FzFozQ8pbkiuX8usW2jT-19" value="&amp;nbsp;AWID&amp;nbsp;" style="edgeLabel;resizable=0;html=1;align=center;verticalAlign=middle;strokeColor=#0066CC;" parent="FzFozQ8pbkiuX8usW2jT-18" connectable="0" vertex="1">
          <mxGeometry relative="1" as="geometry" />
        </mxCell>
        <mxCell id="FzFozQ8pbkiuX8usW2jT-20" value="" style="endArrow=classic;html=1;rounded=0;strokeWidth=6;strokeColor=#0066CC;" parent="1" edge="1">
          <mxGeometry relative="1" as="geometry">
            <mxPoint x="64" y="254" as="sourcePoint" />
            <mxPoint x="164" y="254" as="targetPoint" />
          </mxGeometry>
        </mxCell>
        <mxCell id="FzFozQ8pbkiuX8usW2jT-21" value="&amp;nbsp;AWADDR&amp;nbsp;" style="edgeLabel;resizable=0;html=1;align=center;verticalAlign=middle;strokeColor=#0066CC;" parent="FzFozQ8pbkiuX8usW2jT-20" connectable="0" vertex="1">
          <mxGeometry relative="1" as="geometry" />
        </mxCell>
        <mxCell id="YU5_GZ8aUwFnw-8ss64A-1" value="" style="endArrow=classic;html=1;rounded=0;strokeColor=#0066CC;" edge="1" parent="1">
          <mxGeometry relative="1" as="geometry">
            <mxPoint x="64" y="293" as="sourcePoint" />
            <mxPoint x="164" y="293" as="targetPoint" />
          </mxGeometry>
        </mxCell>
        <mxCell id="YU5_GZ8aUwFnw-8ss64A-2" value="&amp;nbsp;AWSIZE&amp;nbsp;" style="edgeLabel;resizable=0;html=1;align=center;verticalAlign=middle;strokeColor=#0066CC;" connectable="0" vertex="1" parent="YU5_GZ8aUwFnw-8ss64A-1">
          <mxGeometry relative="1" as="geometry" />
        </mxCell>
        <mxCell id="YU5_GZ8aUwFnw-8ss64A-3" value="" style="endArrow=classic;html=1;rounded=0;strokeColor=#0066CC;" edge="1" parent="1">
          <mxGeometry relative="1" as="geometry">
            <mxPoint x="64" y="305" as="sourcePoint" />
            <mxPoint x="164" y="305" as="targetPoint" />
          </mxGeometry>
        </mxCell>
        <mxCell id="YU5_GZ8aUwFnw-8ss64A-4" value="&amp;nbsp;AWBURST&amp;nbsp;" style="edgeLabel;resizable=0;html=1;align=center;verticalAlign=middle;strokeColor=#0066CC;" connectable="0" vertex="1" parent="YU5_GZ8aUwFnw-8ss64A-3">
          <mxGeometry relative="1" as="geometry" />
        </mxCell>
        <mxCell id="YU5_GZ8aUwFnw-8ss64A-5" value="" style="endArrow=classic;html=1;rounded=0;strokeColor=#0066CC;" edge="1" parent="1">
          <mxGeometry relative="1" as="geometry">
            <mxPoint x="64" y="329" as="sourcePoint" />
            <mxPoint x="164" y="329" as="targetPoint" />
          </mxGeometry>
        </mxCell>
        <mxCell id="YU5_GZ8aUwFnw-8ss64A-6" value="&amp;nbsp;AWCACHE&amp;nbsp;" style="edgeLabel;resizable=0;html=1;align=center;verticalAlign=middle;strokeColor=#0066CC;" connectable="0" vertex="1" parent="YU5_GZ8aUwFnw-8ss64A-5">
          <mxGeometry relative="1" as="geometry" />
        </mxCell>
        <mxCell id="YU5_GZ8aUwFnw-8ss64A-7" value="" style="endArrow=classic;html=1;rounded=0;strokeColor=#0066CC;" edge="1" parent="1">
          <mxGeometry relative="1" as="geometry">
            <mxPoint x="64" y="317" as="sourcePoint" />
            <mxPoint x="164" y="317" as="targetPoint" />
          </mxGeometry>
        </mxCell>
        <mxCell id="YU5_GZ8aUwFnw-8ss64A-8" value="&amp;nbsp;AWLOCK&amp;nbsp;" style="edgeLabel;resizable=0;html=1;align=center;verticalAlign=middle;strokeColor=#0066CC;" connectable="0" vertex="1" parent="YU5_GZ8aUwFnw-8ss64A-7">
          <mxGeometry relative="1" as="geometry" />
        </mxCell>
        <mxCell id="YU5_GZ8aUwFnw-8ss64A-9" value="" style="endArrow=classic;html=1;rounded=0;strokeColor=#0066CC;" edge="1" parent="1">
          <mxGeometry relative="1" as="geometry">
            <mxPoint x="64" y="341" as="sourcePoint" />
            <mxPoint x="164" y="341" as="targetPoint" />
          </mxGeometry>
        </mxCell>
        <mxCell id="YU5_GZ8aUwFnw-8ss64A-10" value="&amp;nbsp;AWPROT&amp;nbsp;" style="edgeLabel;resizable=0;html=1;align=center;verticalAlign=middle;strokeColor=#0066CC;" connectable="0" vertex="1" parent="YU5_GZ8aUwFnw-8ss64A-9">
          <mxGeometry relative="1" as="geometry" />
        </mxCell>
        <mxCell id="YU5_GZ8aUwFnw-8ss64A-11" value="&lt;font style=&quot;font-size: 18px;&quot;&gt;AXI-M&lt;br&gt;(write)&lt;br&gt;&lt;/font&gt;" style="rounded=0;whiteSpace=wrap;html=1;strokeColor=#0066CC;" vertex="1" parent="1">
          <mxGeometry x="-56" y="240" width="120" height="360" as="geometry" />
        </mxCell>
        <mxCell id="YU5_GZ8aUwFnw-8ss64A-102" value="" style="endArrow=classic;html=1;rounded=0;strokeColor=#0066CC;" edge="1" parent="1">
          <mxGeometry relative="1" as="geometry">
            <mxPoint x="64" y="353" as="sourcePoint" />
            <mxPoint x="164" y="353" as="targetPoint" />
          </mxGeometry>
        </mxCell>
        <mxCell id="YU5_GZ8aUwFnw-8ss64A-103" value="&amp;nbsp;AWQOS" style="edgeLabel;resizable=0;html=1;align=center;verticalAlign=middle;strokeColor=#0066CC;" connectable="0" vertex="1" parent="YU5_GZ8aUwFnw-8ss64A-102">
          <mxGeometry relative="1" as="geometry" />
        </mxCell>
        <mxCell id="YU5_GZ8aUwFnw-8ss64A-104" value="" style="endArrow=classic;html=1;rounded=0;strokeColor=#0066CC;" edge="1" parent="1">
          <mxGeometry relative="1" as="geometry">
            <mxPoint x="64" y="365" as="sourcePoint" />
            <mxPoint x="164" y="365" as="targetPoint" />
          </mxGeometry>
        </mxCell>
        <mxCell id="YU5_GZ8aUwFnw-8ss64A-105" value="&amp;nbsp;AWREGION&amp;nbsp;" style="edgeLabel;resizable=0;html=1;align=center;verticalAlign=middle;strokeColor=#0066CC;" connectable="0" vertex="1" parent="YU5_GZ8aUwFnw-8ss64A-104">
          <mxGeometry relative="1" as="geometry" />
        </mxCell>
        <mxCell id="YU5_GZ8aUwFnw-8ss64A-106" value="" style="endArrow=classic;html=1;rounded=0;strokeColor=#0066CC;" edge="1" parent="1">
          <mxGeometry relative="1" as="geometry">
            <mxPoint x="64" y="389" as="sourcePoint" />
            <mxPoint x="164" y="389" as="targetPoint" />
          </mxGeometry>
        </mxCell>
        <mxCell id="YU5_GZ8aUwFnw-8ss64A-107" value="&amp;nbsp;AWVALID&amp;nbsp;" style="edgeLabel;resizable=0;html=1;align=center;verticalAlign=middle;strokeColor=#0066CC;" connectable="0" vertex="1" parent="YU5_GZ8aUwFnw-8ss64A-106">
          <mxGeometry relative="1" as="geometry" />
        </mxCell>
        <mxCell id="YU5_GZ8aUwFnw-8ss64A-108" value="" style="endArrow=classic;html=1;rounded=0;strokeColor=#0066CC;" edge="1" parent="1">
          <mxGeometry relative="1" as="geometry">
            <mxPoint x="64" y="377" as="sourcePoint" />
            <mxPoint x="164" y="377" as="targetPoint" />
          </mxGeometry>
        </mxCell>
        <mxCell id="YU5_GZ8aUwFnw-8ss64A-109" value="&amp;nbsp;AWUSER&amp;nbsp;" style="edgeLabel;resizable=0;html=1;align=center;verticalAlign=middle;strokeColor=#0066CC;" connectable="0" vertex="1" parent="YU5_GZ8aUwFnw-8ss64A-108">
          <mxGeometry relative="1" as="geometry" />
        </mxCell>
        <mxCell id="YU5_GZ8aUwFnw-8ss64A-110" value="" style="endArrow=none;html=1;rounded=0;strokeColor=#0066CC;startArrow=classic;startFill=1;endFill=0;" edge="1" parent="1">
          <mxGeometry relative="1" as="geometry">
            <mxPoint x="64" y="401" as="sourcePoint" />
            <mxPoint x="164" y="401" as="targetPoint" />
          </mxGeometry>
        </mxCell>
        <mxCell id="YU5_GZ8aUwFnw-8ss64A-111" value="&amp;nbsp;AWREADY&amp;nbsp;" style="edgeLabel;resizable=0;html=1;align=center;verticalAlign=middle;strokeColor=#0066CC;" connectable="0" vertex="1" parent="YU5_GZ8aUwFnw-8ss64A-110">
          <mxGeometry relative="1" as="geometry" />
        </mxCell>
        <mxCell id="YU5_GZ8aUwFnw-8ss64A-112" value="&lt;font style=&quot;font-size: 18px;&quot;&gt;AXI-S&lt;br&gt;&lt;/font&gt;" style="rounded=0;whiteSpace=wrap;html=1;strokeColor=#0066CC;" vertex="1" parent="1">
          <mxGeometry x="544" y="240" width="120" height="30" as="geometry" />
        </mxCell>
        <mxCell id="YU5_GZ8aUwFnw-8ss64A-113" value="" style="endArrow=classic;html=1;rounded=0;strokeColor=#0066CC;startArrow=classic;startFill=1;" edge="1" parent="1">
          <mxGeometry relative="1" as="geometry">
            <mxPoint x="444" y="250" as="sourcePoint" />
            <mxPoint x="544" y="250" as="targetPoint" />
          </mxGeometry>
        </mxCell>
        <mxCell id="YU5_GZ8aUwFnw-8ss64A-114" value="&amp;nbsp;ACLK&amp;nbsp;" style="edgeLabel;resizable=0;html=1;align=center;verticalAlign=middle;strokeColor=#0066CC;" connectable="0" vertex="1" parent="YU5_GZ8aUwFnw-8ss64A-113">
          <mxGeometry relative="1" as="geometry" />
        </mxCell>
        <mxCell id="YU5_GZ8aUwFnw-8ss64A-115" value="" style="endArrow=classic;html=1;rounded=0;strokeColor=#0066CC;startArrow=classic;startFill=1;" edge="1" parent="1">
          <mxGeometry relative="1" as="geometry">
            <mxPoint x="444" y="260" as="sourcePoint" />
            <mxPoint x="544" y="260" as="targetPoint" />
          </mxGeometry>
        </mxCell>
        <mxCell id="YU5_GZ8aUwFnw-8ss64A-116" value="&amp;nbsp;ARESETn&amp;nbsp;" style="edgeLabel;resizable=0;html=1;align=center;verticalAlign=middle;strokeColor=#0066CC;" connectable="0" vertex="1" parent="YU5_GZ8aUwFnw-8ss64A-115">
          <mxGeometry relative="1" as="geometry" />
        </mxCell>
        <mxCell id="YU5_GZ8aUwFnw-8ss64A-117" value="&lt;font style=&quot;font-size: 18px;&quot;&gt;AXI-M&lt;br&gt;&lt;/font&gt;" style="rounded=0;whiteSpace=wrap;html=1;strokeColor=#0066CC;" vertex="1" parent="1">
          <mxGeometry x="324" y="240" width="120" height="30" as="geometry" />
        </mxCell>
        <mxCell id="YU5_GZ8aUwFnw-8ss64A-118" value="" style="endArrow=classic;html=1;rounded=0;strokeColor=#0066CC;" edge="1" parent="1">
          <mxGeometry relative="1" as="geometry">
            <mxPoint x="64" y="458" as="sourcePoint" />
            <mxPoint x="164" y="458" as="targetPoint" />
          </mxGeometry>
        </mxCell>
        <mxCell id="YU5_GZ8aUwFnw-8ss64A-119" value="&amp;nbsp;WSTRB&amp;nbsp;" style="edgeLabel;resizable=0;html=1;align=center;verticalAlign=middle;strokeColor=#0066CC;" connectable="0" vertex="1" parent="YU5_GZ8aUwFnw-8ss64A-118">
          <mxGeometry relative="1" as="geometry" />
        </mxCell>
        <mxCell id="YU5_GZ8aUwFnw-8ss64A-120" value="" style="endArrow=classic;html=1;rounded=0;strokeColor=#cc0000;" edge="1" parent="1">
          <mxGeometry relative="1" as="geometry">
            <mxPoint x="64" y="446" as="sourcePoint" />
            <mxPoint x="164" y="446" as="targetPoint" />
          </mxGeometry>
        </mxCell>
        <mxCell id="YU5_GZ8aUwFnw-8ss64A-121" value="&amp;nbsp;WID&amp;nbsp;" style="edgeLabel;resizable=0;html=1;align=center;verticalAlign=middle;strokeColor=#0066CC;" connectable="0" vertex="1" parent="YU5_GZ8aUwFnw-8ss64A-120">
          <mxGeometry relative="1" as="geometry" />
        </mxCell>
        <mxCell id="YU5_GZ8aUwFnw-8ss64A-122" value="" style="endArrow=classic;html=1;rounded=0;strokeWidth=6;strokeColor=#0066CC;" edge="1" parent="1">
          <mxGeometry relative="1" as="geometry">
            <mxPoint x="64" y="431" as="sourcePoint" />
            <mxPoint x="164" y="431" as="targetPoint" />
          </mxGeometry>
        </mxCell>
        <mxCell id="YU5_GZ8aUwFnw-8ss64A-123" value="&amp;nbsp;WDATA&amp;nbsp;" style="edgeLabel;resizable=0;html=1;align=center;verticalAlign=middle;strokeColor=#0066CC;" connectable="0" vertex="1" parent="YU5_GZ8aUwFnw-8ss64A-122">
          <mxGeometry relative="1" as="geometry" />
        </mxCell>
        <mxCell id="YU5_GZ8aUwFnw-8ss64A-124" value="" style="endArrow=classic;html=1;rounded=0;strokeColor=#0066CC;" edge="1" parent="1">
          <mxGeometry relative="1" as="geometry">
            <mxPoint x="64" y="470" as="sourcePoint" />
            <mxPoint x="164" y="470" as="targetPoint" />
          </mxGeometry>
        </mxCell>
        <mxCell id="YU5_GZ8aUwFnw-8ss64A-125" value="&amp;nbsp;WLAST&amp;nbsp;" style="edgeLabel;resizable=0;html=1;align=center;verticalAlign=middle;strokeColor=#0066CC;" connectable="0" vertex="1" parent="YU5_GZ8aUwFnw-8ss64A-124">
          <mxGeometry relative="1" as="geometry" />
        </mxCell>
        <mxCell id="YU5_GZ8aUwFnw-8ss64A-138" value="" style="endArrow=classic;html=1;rounded=0;strokeColor=#0066CC;" edge="1" parent="1">
          <mxGeometry relative="1" as="geometry">
            <mxPoint x="64" y="494" as="sourcePoint" />
            <mxPoint x="164" y="494" as="targetPoint" />
          </mxGeometry>
        </mxCell>
        <mxCell id="YU5_GZ8aUwFnw-8ss64A-139" value="&amp;nbsp;WVALID&amp;nbsp;" style="edgeLabel;resizable=0;html=1;align=center;verticalAlign=middle;strokeColor=#0066CC;" connectable="0" vertex="1" parent="YU5_GZ8aUwFnw-8ss64A-138">
          <mxGeometry relative="1" as="geometry" />
        </mxCell>
        <mxCell id="YU5_GZ8aUwFnw-8ss64A-140" value="" style="endArrow=classic;html=1;rounded=0;strokeColor=#0066CC;" edge="1" parent="1">
          <mxGeometry relative="1" as="geometry">
            <mxPoint x="64" y="482" as="sourcePoint" />
            <mxPoint x="164" y="482" as="targetPoint" />
          </mxGeometry>
        </mxCell>
        <mxCell id="YU5_GZ8aUwFnw-8ss64A-141" value="&amp;nbsp;WUSER&amp;nbsp;" style="edgeLabel;resizable=0;html=1;align=center;verticalAlign=middle;strokeColor=#0066CC;" connectable="0" vertex="1" parent="YU5_GZ8aUwFnw-8ss64A-140">
          <mxGeometry relative="1" as="geometry" />
        </mxCell>
        <mxCell id="YU5_GZ8aUwFnw-8ss64A-142" value="" style="endArrow=none;html=1;rounded=0;strokeColor=#0066CC;startArrow=classic;startFill=1;endFill=0;" edge="1" parent="1">
          <mxGeometry relative="1" as="geometry">
            <mxPoint x="64" y="506" as="sourcePoint" />
            <mxPoint x="164" y="506" as="targetPoint" />
          </mxGeometry>
        </mxCell>
        <mxCell id="YU5_GZ8aUwFnw-8ss64A-143" value="&amp;nbsp;WREADY&amp;nbsp;" style="edgeLabel;resizable=0;html=1;align=center;verticalAlign=middle;strokeColor=#0066CC;" connectable="0" vertex="1" parent="YU5_GZ8aUwFnw-8ss64A-142">
          <mxGeometry relative="1" as="geometry" />
        </mxCell>
        <mxCell id="YU5_GZ8aUwFnw-8ss64A-144" value="" style="endArrow=none;html=1;rounded=0;strokeColor=#0066CC;startArrow=classic;startFill=1;endFill=0;" edge="1" parent="1">
          <mxGeometry relative="1" as="geometry">
            <mxPoint x="64" y="535" as="sourcePoint" />
            <mxPoint x="164" y="535" as="targetPoint" />
          </mxGeometry>
        </mxCell>
        <mxCell id="YU5_GZ8aUwFnw-8ss64A-145" value="&amp;nbsp;BID&amp;nbsp;" style="edgeLabel;resizable=0;html=1;align=center;verticalAlign=middle;strokeColor=#0066CC;" connectable="0" vertex="1" parent="YU5_GZ8aUwFnw-8ss64A-144">
          <mxGeometry relative="1" as="geometry" />
        </mxCell>
        <mxCell id="YU5_GZ8aUwFnw-8ss64A-150" value="" style="endArrow=none;html=1;rounded=0;strokeColor=#0066CC;startArrow=classic;startFill=1;endFill=0;" edge="1" parent="1">
          <mxGeometry relative="1" as="geometry">
            <mxPoint x="64" y="547" as="sourcePoint" />
            <mxPoint x="164" y="547" as="targetPoint" />
          </mxGeometry>
        </mxCell>
        <mxCell id="YU5_GZ8aUwFnw-8ss64A-151" value="&amp;nbsp;BRESP&amp;nbsp;" style="edgeLabel;resizable=0;html=1;align=center;verticalAlign=middle;strokeColor=#0066CC;" connectable="0" vertex="1" parent="YU5_GZ8aUwFnw-8ss64A-150">
          <mxGeometry relative="1" as="geometry" />
        </mxCell>
        <mxCell id="YU5_GZ8aUwFnw-8ss64A-152" value="" style="endArrow=none;html=1;rounded=0;strokeColor=#0066CC;startArrow=classic;startFill=1;endFill=0;" edge="1" parent="1">
          <mxGeometry relative="1" as="geometry">
            <mxPoint x="64" y="571" as="sourcePoint" />
            <mxPoint x="164" y="571" as="targetPoint" />
          </mxGeometry>
        </mxCell>
        <mxCell id="YU5_GZ8aUwFnw-8ss64A-153" value="&amp;nbsp;BVALID&amp;nbsp;" style="edgeLabel;resizable=0;html=1;align=center;verticalAlign=middle;strokeColor=#0066CC;" connectable="0" vertex="1" parent="YU5_GZ8aUwFnw-8ss64A-152">
          <mxGeometry relative="1" as="geometry" />
        </mxCell>
        <mxCell id="YU5_GZ8aUwFnw-8ss64A-154" value="" style="endArrow=none;html=1;rounded=0;strokeColor=#0066CC;startArrow=classic;startFill=1;endFill=0;" edge="1" parent="1">
          <mxGeometry relative="1" as="geometry">
            <mxPoint x="64" y="559" as="sourcePoint" />
            <mxPoint x="164" y="559" as="targetPoint" />
          </mxGeometry>
        </mxCell>
        <mxCell id="YU5_GZ8aUwFnw-8ss64A-155" value="&amp;nbsp;BUSER&amp;nbsp;" style="edgeLabel;resizable=0;html=1;align=center;verticalAlign=middle;strokeColor=#0066CC;" connectable="0" vertex="1" parent="YU5_GZ8aUwFnw-8ss64A-154">
          <mxGeometry relative="1" as="geometry" />
        </mxCell>
        <mxCell id="YU5_GZ8aUwFnw-8ss64A-156" value="" style="endArrow=classic;html=1;rounded=0;strokeColor=#0066CC;startArrow=none;startFill=0;endFill=1;" edge="1" parent="1">
          <mxGeometry relative="1" as="geometry">
            <mxPoint x="64" y="583" as="sourcePoint" />
            <mxPoint x="164" y="583" as="targetPoint" />
          </mxGeometry>
        </mxCell>
        <mxCell id="YU5_GZ8aUwFnw-8ss64A-157" value="&amp;nbsp;BREADY&amp;nbsp;" style="edgeLabel;resizable=0;html=1;align=center;verticalAlign=middle;strokeColor=#0066CC;" connectable="0" vertex="1" parent="YU5_GZ8aUwFnw-8ss64A-156">
          <mxGeometry relative="1" as="geometry" />
        </mxCell>
        <mxCell id="YU5_GZ8aUwFnw-8ss64A-159" value="&lt;font style=&quot;font-size: 18px;&quot;&gt;AXI-S&lt;br&gt;(read)&lt;br&gt;&lt;/font&gt;" style="rounded=0;whiteSpace=wrap;html=1;strokeColor=#0066CC;" vertex="1" parent="1">
          <mxGeometry x="544" y="320" width="120" height="280" as="geometry" />
        </mxCell>
        <mxCell id="YU5_GZ8aUwFnw-8ss64A-160" value="" style="endArrow=classic;html=1;rounded=0;strokeColor=#0066CC;" edge="1" parent="1">
          <mxGeometry relative="1" as="geometry">
            <mxPoint x="444" y="361" as="sourcePoint" />
            <mxPoint x="544" y="361" as="targetPoint" />
          </mxGeometry>
        </mxCell>
        <mxCell id="YU5_GZ8aUwFnw-8ss64A-161" value="&amp;nbsp;ARLEN&amp;nbsp;" style="edgeLabel;resizable=0;html=1;align=center;verticalAlign=middle;strokeColor=#0066CC;" connectable="0" vertex="1" parent="YU5_GZ8aUwFnw-8ss64A-160">
          <mxGeometry relative="1" as="geometry" />
        </mxCell>
        <mxCell id="YU5_GZ8aUwFnw-8ss64A-162" value="" style="endArrow=classic;html=1;rounded=0;strokeColor=#0066CC;" edge="1" parent="1">
          <mxGeometry relative="1" as="geometry">
            <mxPoint x="444" y="349" as="sourcePoint" />
            <mxPoint x="544" y="349" as="targetPoint" />
          </mxGeometry>
        </mxCell>
        <mxCell id="YU5_GZ8aUwFnw-8ss64A-163" value="&amp;nbsp;ARID&amp;nbsp;" style="edgeLabel;resizable=0;html=1;align=center;verticalAlign=middle;strokeColor=#0066CC;" connectable="0" vertex="1" parent="YU5_GZ8aUwFnw-8ss64A-162">
          <mxGeometry relative="1" as="geometry" />
        </mxCell>
        <mxCell id="YU5_GZ8aUwFnw-8ss64A-164" value="" style="endArrow=classic;html=1;rounded=0;strokeWidth=6;strokeColor=#0066CC;" edge="1" parent="1">
          <mxGeometry relative="1" as="geometry">
            <mxPoint x="444" y="334" as="sourcePoint" />
            <mxPoint x="544" y="334" as="targetPoint" />
          </mxGeometry>
        </mxCell>
        <mxCell id="YU5_GZ8aUwFnw-8ss64A-165" value="&amp;nbsp;ARADDR&amp;nbsp;" style="edgeLabel;resizable=0;html=1;align=center;verticalAlign=middle;strokeColor=#0066CC;" connectable="0" vertex="1" parent="YU5_GZ8aUwFnw-8ss64A-164">
          <mxGeometry relative="1" as="geometry" />
        </mxCell>
        <mxCell id="YU5_GZ8aUwFnw-8ss64A-166" value="" style="endArrow=classic;html=1;rounded=0;strokeColor=#0066CC;" edge="1" parent="1">
          <mxGeometry relative="1" as="geometry">
            <mxPoint x="444" y="373" as="sourcePoint" />
            <mxPoint x="544" y="373" as="targetPoint" />
          </mxGeometry>
        </mxCell>
        <mxCell id="YU5_GZ8aUwFnw-8ss64A-167" value="&amp;nbsp;ARSIZE&amp;nbsp;" style="edgeLabel;resizable=0;html=1;align=center;verticalAlign=middle;strokeColor=#0066CC;" connectable="0" vertex="1" parent="YU5_GZ8aUwFnw-8ss64A-166">
          <mxGeometry relative="1" as="geometry" />
        </mxCell>
        <mxCell id="YU5_GZ8aUwFnw-8ss64A-168" value="" style="endArrow=classic;html=1;rounded=0;strokeColor=#0066CC;" edge="1" parent="1">
          <mxGeometry relative="1" as="geometry">
            <mxPoint x="444" y="385" as="sourcePoint" />
            <mxPoint x="544" y="385" as="targetPoint" />
          </mxGeometry>
        </mxCell>
        <mxCell id="YU5_GZ8aUwFnw-8ss64A-169" value="&amp;nbsp;ARBURST&amp;nbsp;" style="edgeLabel;resizable=0;html=1;align=center;verticalAlign=middle;strokeColor=#0066CC;" connectable="0" vertex="1" parent="YU5_GZ8aUwFnw-8ss64A-168">
          <mxGeometry relative="1" as="geometry" />
        </mxCell>
        <mxCell id="YU5_GZ8aUwFnw-8ss64A-170" value="" style="endArrow=classic;html=1;rounded=0;strokeColor=#0066CC;" edge="1" parent="1">
          <mxGeometry relative="1" as="geometry">
            <mxPoint x="444" y="409" as="sourcePoint" />
            <mxPoint x="544" y="409" as="targetPoint" />
          </mxGeometry>
        </mxCell>
        <mxCell id="YU5_GZ8aUwFnw-8ss64A-171" value="&amp;nbsp;ARCACHE&amp;nbsp;" style="edgeLabel;resizable=0;html=1;align=center;verticalAlign=middle;strokeColor=#0066CC;" connectable="0" vertex="1" parent="YU5_GZ8aUwFnw-8ss64A-170">
          <mxGeometry relative="1" as="geometry" />
        </mxCell>
        <mxCell id="YU5_GZ8aUwFnw-8ss64A-172" value="" style="endArrow=classic;html=1;rounded=0;strokeColor=#0066CC;" edge="1" parent="1">
          <mxGeometry relative="1" as="geometry">
            <mxPoint x="444" y="397" as="sourcePoint" />
            <mxPoint x="544" y="397" as="targetPoint" />
          </mxGeometry>
        </mxCell>
        <mxCell id="YU5_GZ8aUwFnw-8ss64A-173" value="&amp;nbsp;ARLOCK&amp;nbsp;" style="edgeLabel;resizable=0;html=1;align=center;verticalAlign=middle;strokeColor=#0066CC;" connectable="0" vertex="1" parent="YU5_GZ8aUwFnw-8ss64A-172">
          <mxGeometry relative="1" as="geometry" />
        </mxCell>
        <mxCell id="YU5_GZ8aUwFnw-8ss64A-174" value="" style="endArrow=classic;html=1;rounded=0;strokeColor=#0066CC;" edge="1" parent="1">
          <mxGeometry relative="1" as="geometry">
            <mxPoint x="444" y="421" as="sourcePoint" />
            <mxPoint x="544" y="421" as="targetPoint" />
          </mxGeometry>
        </mxCell>
        <mxCell id="YU5_GZ8aUwFnw-8ss64A-175" value="&amp;nbsp;ARPROT&amp;nbsp;" style="edgeLabel;resizable=0;html=1;align=center;verticalAlign=middle;strokeColor=#0066CC;" connectable="0" vertex="1" parent="YU5_GZ8aUwFnw-8ss64A-174">
          <mxGeometry relative="1" as="geometry" />
        </mxCell>
        <mxCell id="YU5_GZ8aUwFnw-8ss64A-176" value="&lt;font style=&quot;font-size: 18px;&quot;&gt;AXI-M&lt;br&gt;(read)&lt;br&gt;&lt;/font&gt;" style="rounded=0;whiteSpace=wrap;html=1;strokeColor=#0066CC;" vertex="1" parent="1">
          <mxGeometry x="324" y="320" width="120" height="280" as="geometry" />
        </mxCell>
        <mxCell id="YU5_GZ8aUwFnw-8ss64A-177" value="" style="endArrow=classic;html=1;rounded=0;strokeColor=#0066CC;" edge="1" parent="1">
          <mxGeometry relative="1" as="geometry">
            <mxPoint x="444" y="433" as="sourcePoint" />
            <mxPoint x="544" y="433" as="targetPoint" />
          </mxGeometry>
        </mxCell>
        <mxCell id="YU5_GZ8aUwFnw-8ss64A-178" value="&amp;nbsp;ARQOS" style="edgeLabel;resizable=0;html=1;align=center;verticalAlign=middle;strokeColor=#0066CC;" connectable="0" vertex="1" parent="YU5_GZ8aUwFnw-8ss64A-177">
          <mxGeometry relative="1" as="geometry" />
        </mxCell>
        <mxCell id="YU5_GZ8aUwFnw-8ss64A-179" value="" style="endArrow=classic;html=1;rounded=0;strokeColor=#0066CC;" edge="1" parent="1">
          <mxGeometry relative="1" as="geometry">
            <mxPoint x="444" y="445" as="sourcePoint" />
            <mxPoint x="544" y="445" as="targetPoint" />
          </mxGeometry>
        </mxCell>
        <mxCell id="YU5_GZ8aUwFnw-8ss64A-180" value="&amp;nbsp;ARREGION&amp;nbsp;" style="edgeLabel;resizable=0;html=1;align=center;verticalAlign=middle;strokeColor=#0066CC;" connectable="0" vertex="1" parent="YU5_GZ8aUwFnw-8ss64A-179">
          <mxGeometry relative="1" as="geometry" />
        </mxCell>
        <mxCell id="YU5_GZ8aUwFnw-8ss64A-181" value="" style="endArrow=classic;html=1;rounded=0;strokeColor=#0066CC;" edge="1" parent="1">
          <mxGeometry relative="1" as="geometry">
            <mxPoint x="444" y="469" as="sourcePoint" />
            <mxPoint x="544" y="469" as="targetPoint" />
          </mxGeometry>
        </mxCell>
        <mxCell id="YU5_GZ8aUwFnw-8ss64A-182" value="&amp;nbsp;ARVALID&amp;nbsp;" style="edgeLabel;resizable=0;html=1;align=center;verticalAlign=middle;strokeColor=#0066CC;" connectable="0" vertex="1" parent="YU5_GZ8aUwFnw-8ss64A-181">
          <mxGeometry relative="1" as="geometry" />
        </mxCell>
        <mxCell id="YU5_GZ8aUwFnw-8ss64A-183" value="" style="endArrow=classic;html=1;rounded=0;strokeColor=#0066CC;" edge="1" parent="1">
          <mxGeometry relative="1" as="geometry">
            <mxPoint x="444" y="457" as="sourcePoint" />
            <mxPoint x="544" y="457" as="targetPoint" />
          </mxGeometry>
        </mxCell>
        <mxCell id="YU5_GZ8aUwFnw-8ss64A-184" value="&amp;nbsp;ARUSER&amp;nbsp;" style="edgeLabel;resizable=0;html=1;align=center;verticalAlign=middle;strokeColor=#0066CC;" connectable="0" vertex="1" parent="YU5_GZ8aUwFnw-8ss64A-183">
          <mxGeometry relative="1" as="geometry" />
        </mxCell>
        <mxCell id="YU5_GZ8aUwFnw-8ss64A-185" value="" style="endArrow=none;html=1;rounded=0;strokeColor=#0066CC;startArrow=classic;startFill=1;endFill=0;" edge="1" parent="1">
          <mxGeometry relative="1" as="geometry">
            <mxPoint x="444" y="481" as="sourcePoint" />
            <mxPoint x="544" y="481" as="targetPoint" />
          </mxGeometry>
        </mxCell>
        <mxCell id="YU5_GZ8aUwFnw-8ss64A-186" value="&amp;nbsp;ARREADY&amp;nbsp;" style="edgeLabel;resizable=0;html=1;align=center;verticalAlign=middle;strokeColor=#0066CC;" connectable="0" vertex="1" parent="YU5_GZ8aUwFnw-8ss64A-185">
          <mxGeometry relative="1" as="geometry" />
        </mxCell>
        <mxCell id="YU5_GZ8aUwFnw-8ss64A-191" value="" style="endArrow=none;html=1;rounded=0;strokeWidth=6;strokeColor=#0066CC;startArrow=classic;startFill=1;endFill=0;" edge="1" parent="1">
          <mxGeometry relative="1" as="geometry">
            <mxPoint x="444" y="511" as="sourcePoint" />
            <mxPoint x="544" y="511" as="targetPoint" />
          </mxGeometry>
        </mxCell>
        <mxCell id="YU5_GZ8aUwFnw-8ss64A-192" value="&amp;nbsp;RDATA&amp;nbsp;" style="edgeLabel;resizable=0;html=1;align=center;verticalAlign=middle;strokeColor=#0066CC;" connectable="0" vertex="1" parent="YU5_GZ8aUwFnw-8ss64A-191">
          <mxGeometry relative="1" as="geometry" />
        </mxCell>
        <mxCell id="YU5_GZ8aUwFnw-8ss64A-201" value="" style="endArrow=none;html=1;rounded=0;strokeColor=#0066CC;startArrow=classic;startFill=1;endFill=0;" edge="1" parent="1">
          <mxGeometry relative="1" as="geometry">
            <mxPoint x="444" y="526" as="sourcePoint" />
            <mxPoint x="544" y="526" as="targetPoint" />
          </mxGeometry>
        </mxCell>
        <mxCell id="YU5_GZ8aUwFnw-8ss64A-202" value="&amp;nbsp;RID&amp;nbsp;" style="edgeLabel;resizable=0;html=1;align=center;verticalAlign=middle;strokeColor=#0066CC;" connectable="0" vertex="1" parent="YU5_GZ8aUwFnw-8ss64A-201">
          <mxGeometry relative="1" as="geometry" />
        </mxCell>
        <mxCell id="YU5_GZ8aUwFnw-8ss64A-203" value="" style="endArrow=none;html=1;rounded=0;strokeColor=#0066CC;startArrow=classic;startFill=1;endFill=0;" edge="1" parent="1">
          <mxGeometry relative="1" as="geometry">
            <mxPoint x="444" y="550" as="sourcePoint" />
            <mxPoint x="544" y="550" as="targetPoint" />
          </mxGeometry>
        </mxCell>
        <mxCell id="YU5_GZ8aUwFnw-8ss64A-204" value="&amp;nbsp;RLAST&amp;nbsp;" style="edgeLabel;resizable=0;html=1;align=center;verticalAlign=middle;strokeColor=#0066CC;" connectable="0" vertex="1" parent="YU5_GZ8aUwFnw-8ss64A-203">
          <mxGeometry relative="1" as="geometry" />
        </mxCell>
        <mxCell id="YU5_GZ8aUwFnw-8ss64A-205" value="" style="endArrow=none;html=1;rounded=0;strokeColor=#0066CC;startArrow=classic;startFill=1;endFill=0;" edge="1" parent="1">
          <mxGeometry relative="1" as="geometry">
            <mxPoint x="444" y="574" as="sourcePoint" />
            <mxPoint x="544" y="574" as="targetPoint" />
          </mxGeometry>
        </mxCell>
        <mxCell id="YU5_GZ8aUwFnw-8ss64A-206" value="&amp;nbsp;RVALID&amp;nbsp;" style="edgeLabel;resizable=0;html=1;align=center;verticalAlign=middle;strokeColor=#0066CC;" connectable="0" vertex="1" parent="YU5_GZ8aUwFnw-8ss64A-205">
          <mxGeometry relative="1" as="geometry" />
        </mxCell>
        <mxCell id="YU5_GZ8aUwFnw-8ss64A-207" value="" style="endArrow=none;html=1;rounded=0;strokeColor=#0066CC;startArrow=classic;startFill=1;endFill=0;" edge="1" parent="1">
          <mxGeometry relative="1" as="geometry">
            <mxPoint x="444" y="562" as="sourcePoint" />
            <mxPoint x="544" y="562" as="targetPoint" />
          </mxGeometry>
        </mxCell>
        <mxCell id="YU5_GZ8aUwFnw-8ss64A-208" value="&amp;nbsp;RUSER&amp;nbsp;" style="edgeLabel;resizable=0;html=1;align=center;verticalAlign=middle;strokeColor=#0066CC;" connectable="0" vertex="1" parent="YU5_GZ8aUwFnw-8ss64A-207">
          <mxGeometry relative="1" as="geometry" />
        </mxCell>
        <mxCell id="YU5_GZ8aUwFnw-8ss64A-209" value="" style="endArrow=classic;html=1;rounded=0;strokeColor=#0066CC;startArrow=none;startFill=0;endFill=1;" edge="1" parent="1">
          <mxGeometry relative="1" as="geometry">
            <mxPoint x="444" y="586" as="sourcePoint" />
            <mxPoint x="544" y="586" as="targetPoint" />
          </mxGeometry>
        </mxCell>
        <mxCell id="YU5_GZ8aUwFnw-8ss64A-210" value="&amp;nbsp;RREADY&amp;nbsp;" style="edgeLabel;resizable=0;html=1;align=center;verticalAlign=middle;strokeColor=#0066CC;" connectable="0" vertex="1" parent="YU5_GZ8aUwFnw-8ss64A-209">
          <mxGeometry relative="1" as="geometry" />
        </mxCell>
        <mxCell id="YU5_GZ8aUwFnw-8ss64A-211" value="" style="endArrow=none;html=1;rounded=0;strokeColor=#0066CC;startArrow=classic;startFill=1;endFill=0;" edge="1" parent="1">
          <mxGeometry relative="1" as="geometry">
            <mxPoint x="444" y="538" as="sourcePoint" />
            <mxPoint x="544" y="538" as="targetPoint" />
          </mxGeometry>
        </mxCell>
        <mxCell id="YU5_GZ8aUwFnw-8ss64A-212" value="&amp;nbsp;RRESP&amp;nbsp;" style="edgeLabel;resizable=0;html=1;align=center;verticalAlign=middle;strokeColor=#0066CC;" connectable="0" vertex="1" parent="YU5_GZ8aUwFnw-8ss64A-211">
          <mxGeometry relative="1" as="geometry" />
        </mxCell>
      </root>
    </mxGraphModel>
  </diagram>
</mxfile>
